<?xml version="1.0" standalone="no"?><svg xmlns="http://www.w3.org/2000/svg" viewBox="0 0 1440 320"><path fill="#0099ff" fill-opacity="1" d="M0,32L30,32C60,32,120,32,180,58.7C240,85,300,139,360,160C420,181,480,171,540,149.3C600,128,660,96,720,74.7C780,53,840,43,900,53.3C960,64,1020,96,1080,90.7C1140,85,1200,43,1260,26.7C1320,11,1380,21,1410,26.7L1440,32L1440,320L1410,320C1380,320,1320,320,1260,320C1200,320,1140,320,1080,320C1020,320,960,320,900,320C840,320,780,320,720,320C660,320,600,320,540,320C480,320,420,320,360,320C300,320,240,320,180,320C120,320,60,320,30,320L0,320Z"></path></svg>